/* XPM */
static char * aiscm_xpm[] = {
"32 32 497 2",
"  	c None",
". 	c #B3B4A9",
"+ 	c #B5B6A9",
"@ 	c #696A8D",
"# 	c #47477A",
"$ 	c #3E3E78",
"% 	c #898A9B",
"& 	c #B0B1A9",
"* 	c #47479C",
"= 	c #0B0B73",
"- 	c #080861",
"; 	c #070762",
"> 	c #26276C",
", 	c #ACADA4",
"' 	c #B2B4A6",
") 	c #AFB0A8",
"! 	c #B1B2AA",
"~ 	c #3C3D9E",
"{ 	c #101081",
"] 	c #111164",
"^ 	c #0A0A63",
"/ 	c #4D4D7B",
"( 	c #9E9FA1",
"_ 	c #44457B",
": 	c #383874",
"< 	c #4F5080",
"[ 	c #A7A89E",
"} 	c #AAACA0",
"| 	c #848676",
"1 	c #7B7D76",
"2 	c #6E7089",
"3 	c #818293",
"4 	c #8D8E98",
"5 	c #A5A6A3",
"6 	c #21218D",
"7 	c #0A0A6C",
"8 	c #090964",
"9 	c #060662",
"0 	c #56577C",
"a 	c #A9AA9B",
"b 	c #ACAD9A",
"c 	c #ABADA1",
"d 	c #9FA292",
"e 	c #949685",
"f 	c #73745F",
"g 	c #676857",
"h 	c #6F7267",
"i 	c #9A9C92",
"j 	c #A1A2A0",
"k 	c #272799",
"l 	c #111173",
"m 	c #1A1A6B",
"n 	c #121265",
"o 	c #88898E",
"p 	c #888990",
"q 	c #2B2B6E",
"r 	c #2D2E6F",
"s 	c #4C4D74",
"t 	c #999A8D",
"u 	c #98998C",
"v 	c #A4A59A",
"w 	c #A9AB9F",
"x 	c #A5A897",
"y 	c #9FA291",
"z 	c #949786",
"A 	c #777864",
"B 	c #72735D",
"C 	c #6C6D57",
"D 	c #696A55",
"E 	c #7C7E6B",
"F 	c #726F73",
"G 	c #5E5C7C",
"H 	c #6A6B85",
"I 	c #949691",
"J 	c #898A95",
"K 	c #121381",
"L 	c #0B0B65",
"M 	c #090960",
"N 	c #68697A",
"O 	c #949584",
"P 	c #9D9F8D",
"Q 	c #8F9082",
"R 	c #959787",
"S 	c #A5A898",
"T 	c #A4A797",
"U 	c #9C9F8F",
"V 	c #969987",
"W 	c #7B7D69",
"X 	c #767763",
"Y 	c #72735E",
"Z 	c #6D6E58",
"` 	c #6A6B54",
" .	c #62604C",
"..	c #686652",
"+.	c #837E71",
"@.	c #969688",
"#.	c #828393",
"$.	c #111183",
"%.	c #131368",
"&.	c #131365",
"*.	c #101062",
"=.	c #6C6D77",
"-.	c #919280",
";.	c #868774",
">.	c #939486",
",.	c #9EA091",
"'.	c #A8AB9B",
").	c #A3A696",
"!.	c #9D9F8F",
"~.	c #979B89",
"{.	c #7F816E",
"].	c #7B7C69",
"^.	c #767764",
"/.	c #6E6F59",
"(.	c #696A54",
"_.	c #676752",
":.	c #666753",
"<.	c #707161",
"[.	c #66616E",
"}.	c #686981",
"|.	c #636478",
"1.	c #7B7B79",
"2.	c #8C8E7C",
"3.	c #979984",
"4.	c #848672",
"5.	c #B9BBAD",
"6.	c #9A9B8E",
"7.	c #9A9B8D",
"8.	c #A4A898",
"9.	c #A7AA9A",
"0.	c #A1A494",
"a.	c #9EA190",
"b.	c #919382",
"c.	c #838572",
"d.	c #7F806E",
"e.	c #6A6B55",
"f.	c #645F4B",
"g.	c #7B7C66",
"h.	c #8A8B77",
"i.	c #8B8C7A",
"j.	c #9B9D89",
"k.	c #999B86",
"l.	c #999C87",
"m.	c #9D9E92",
"n.	c #9D9F91",
"o.	c #A6AA9A",
"p.	c #9EA292",
"q.	c #878778",
"r.	c #898A79",
"s.	c #848574",
"t.	c #80816F",
"u.	c #7C7D6A",
"v.	c #727460",
"w.	c #6F705A",
"x.	c #80816E",
"y.	c #898A78",
"z.	c #9C9F8B",
"A.	c #A2A692",
"B.	c #8F907D",
"C.	c #9FA18D",
"D.	c #B8BBAC",
"E.	c #A0A096",
"F.	c #A2A596",
"G.	c #A6A999",
"H.	c #9EA191",
"I.	c #9DA191",
"J.	c #50342E",
"K.	c #3B2923",
"L.	c #594B40",
"M.	c #7F7F6E",
"N.	c #80826F",
"O.	c #787965",
"P.	c #747560",
"Q.	c #6A6C55",
"R.	c #7E7F6B",
"S.	c #848573",
"T.	c #A5A794",
"U.	c #9EA18D",
"V.	c #90927F",
"W.	c #A0A38F",
"X.	c #B7B9AB",
"Y.	c #A2A399",
"Z.	c #A1A397",
"`.	c #A3A695",
" +	c #A4A897",
".+	c #9EA291",
"++	c #989B8C",
"@+	c #776B61",
"#+	c #2B1915",
"$+	c #3F2821",
"%+	c #4C3F34",
"&+	c #828371",
"*+	c #747561",
"=+	c #71725D",
"-+	c #828370",
";+	c #8C8D7A",
">+	c #A4A794",
",+	c #A5A895",
"'+	c #8D8E7A",
")+	c #A1A490",
"!+	c #B4B6A6",
"~+	c #A1A396",
"{+	c #A1A493",
"]+	c #A1A594",
"^+	c #9DA08F",
"/+	c #929385",
"(+	c #2E1D1A",
"_+	c #3B1D19",
":+	c #472E27",
"<+	c #838575",
"[+	c #808170",
"}+	c #7C7D6B",
"|+	c #787966",
"1+	c #757662",
"2+	c #8D8E7B",
"3+	c #ABAD9B",
"4+	c #A8AB98",
"5+	c #8D8F7B",
"6+	c #A5A894",
"7+	c #A3A692",
"8+	c #959784",
"9+	c #A1A298",
"0+	c #A0A197",
"a+	c #9FA390",
"b+	c #9C9F8E",
"c+	c #9A9D8C",
"d+	c #9C9E8F",
"e+	c #9A9B8F",
"f+	c #827E73",
"g+	c #391A18",
"h+	c #412822",
"i+	c #482F29",
"j+	c #878979",
"k+	c #878878",
"l+	c #818270",
"m+	c #7D7E6B",
"n+	c #797A66",
"o+	c #A6A997",
"p+	c #ABAE9C",
"q+	c #AAAD9A",
"r+	c #9A9D89",
"s+	c #979A86",
"t+	c #8B8D7A",
"u+	c #969884",
"v+	c #9EA08C",
"w+	c #9E9F95",
"x+	c #9FA094",
"y+	c #999E8B",
"z+	c #9CA08D",
"A+	c #999C8B",
"B+	c #989C8A",
"C+	c #9C9E91",
"D+	c #908F84",
"E+	c #482825",
"F+	c #301816",
"G+	c #372822",
"H+	c #472D28",
"I+	c #8A8C7C",
"J+	c #8B8C7C",
"K+	c #828470",
"L+	c #B0B3A2",
"M+	c #ADB09E",
"N+	c #ADAF9D",
"O+	c #999B88",
"P+	c #939581",
"Q+	c #8E917E",
"R+	c #959A85",
"S+	c #9FA28E",
"T+	c #A0A38E",
"U+	c #9EA18C",
"V+	c #9FA18C",
"W+	c #9C9C90",
"X+	c #999B8B",
"Y+	c #979B87",
"Z+	c #979B88",
"`+	c #949785",
" @	c #918F84",
".@	c #492725",
"+@	c #351C1A",
"@@	c #2C1917",
"#@	c #3D2620",
"$@	c #584E44",
"%@	c #939586",
"&@	c #8D8F7F",
"*@	c #8A8B7C",
"=@	c #80806E",
"-@	c #A3A593",
";@	c #B1B4A3",
">@	c #AEB19F",
",@	c #A8AA97",
"'@	c #898B77",
")@	c #868874",
"!@	c #838674",
"~@	c #A3A591",
"{@	c #9DA08B",
"]@	c #97988A",
"^@	c #949784",
"/@	c #949884",
"(@	c #919582",
"_@	c #939683",
":@	c #8B8C7F",
"<@	c #412624",
"[@	c #39231F",
"}@	c #4C2B24",
"|@	c #3C1A18",
"1@	c #482721",
"2@	c #5D5147",
"3@	c #96988A",
"4@	c #909183",
"5@	c #8D8E7F",
"6@	c #878877",
"7@	c #B3B5A5",
"8@	c #B0B2A1",
"9@	c #909380",
"0@	c #757863",
"a@	c #A4A793",
"b@	c #747660",
"c@	c #919581",
"d@	c #929682",
"e@	c #8F927E",
"f@	c #8F9180",
"g@	c #58403B",
"h@	c #351E1B",
"i@	c #4D2C26",
"j@	c #583E37",
"k@	c #461B19",
"l@	c #472F27",
"m@	c #5D574C",
"n@	c #989A8D",
"o@	c #909182",
"p@	c #8A8B7B",
"q@	c #9C9D8D",
"r@	c #B5B7A7",
"s@	c #AFB3A1",
"t@	c #A1A391",
"u@	c #8C8F7C",
"v@	c #8A8D7A",
"w@	c #A7AA97",
"x@	c #A2A691",
"y@	c #686953",
"z@	c #878A75",
"A@	c #8E927D",
"B@	c #8C907C",
"C@	c #99998D",
"D@	c #725D53",
"E@	c #6C665A",
"F@	c #858076",
"G@	c #451B19",
"H@	c #443026",
"I@	c #5A594D",
"J@	c #9A9C8E",
"K@	c #959689",
"L@	c #8C8D7D",
"M@	c #AFB2A2",
"N@	c #B6B9A9",
"O@	c #B4B7A6",
"P@	c #ADAF9E",
"Q@	c #929580",
"R@	c #7B7E6F",
"S@	c #A1A491",
"T@	c #A1A38F",
"U@	c #919384",
"V@	c #97988B",
"W@	c #98998D",
"X@	c #9C9E92",
"Y@	c #9D9F93",
"Z@	c #8C887D",
"`@	c #3A1715",
" #	c #30211C",
".#	c #4A4438",
"+#	c #8A8C7F",
"@#	c #96978A",
"##	c #949688",
"$#	c #9A9B8C",
"%#	c #B9BCAD",
"&#	c #B7BAAB",
"*#	c #B7BAAA",
"=#	c #959783",
"-#	c #8E907E",
";#	c #818474",
">#	c #A6A995",
",#	c #A1A48F",
"'#	c #7C7F69",
")#	c #929482",
"!#	c #929384",
"~#	c #949587",
"{#	c #969789",
"]#	c #97988C",
"^#	c #999A8E",
"/#	c #8B847A",
"(#	c #5F534A",
"_#	c #62584F",
":#	c #96978B",
"<#	c #939487",
"[#	c #A4A698",
"}#	c #BCBFB0",
"|#	c #B8BBAB",
"1#	c #B2B5A5",
"2#	c #8B8D7B",
"3#	c #848876",
"4#	c #919482",
"5#	c #A9AC99",
"6#	c #A6A996",
"7#	c #676854",
"8#	c #454664",
"9#	c #7F8175",
"0#	c #959688",
"a#	c #9C9D91",
"b#	c #9B9D91",
"c#	c #9FA190",
"d#	c #9EA090",
"e#	c #AEB09E",
"f#	c #A2A591",
"g#	c #646555",
"h#	c #0B0B60",
"i#	c #0F0F5D",
"j#	c #64665D",
"k#	c #838571",
"l#	c #919283",
"m#	c #A9AA9D",
"n#	c #BEC0B2",
"o#	c #BCBFB1",
"p#	c #BABDAE",
"q#	c #979987",
"r#	c #A3A694",
"s#	c #838673",
"t#	c #A8AA9A",
"u#	c #ABAD9C",
"v#	c #444559",
"w#	c #12115F",
"x#	c #5D5E57",
"y#	c #666856",
"z#	c #5F5E4F",
"A#	c #97998B",
"B#	c #B0B3A5",
"C#	c #BBBEAF",
"D#	c #A4A695",
"E#	c #8D8F7C",
"F#	c #A3A69A",
"G#	c #B5B8A9",
"H#	c #AFB1A0",
"I#	c #ACAF9D",
"J#	c #A9AC9A",
"K#	c #36375B",
"L#	c #1D1E5E",
"M#	c #5A5A56",
"N#	c #21215E",
"O#	c #1B1C60",
"P#	c #555661",
"Q#	c #8D8E81",
"R#	c #999B8E",
"S#	c #7E806D",
"T#	c #BABCAD",
"U#	c #A6A998",
"V#	c #A5A797",
"W#	c #9EA092",
"X#	c #929481",
"Y#	c #AAAD9B",
"Z#	c #484958",
"`#	c #0A0A60",
" $	c #0C0C60",
".$	c #565757",
"+$	c #5F604B",
"@$	c #6D6F60",
"#$	c #9A9C8F",
"$$	c #64654E",
"%$	c #B6B8A9",
"&$	c #969886",
"*$	c #32325C",
"=$	c #0D0D60",
"-$	c #20205E",
";$	c #5B5C56",
">$	c #31315B",
",$	c #58595C",
"'$	c #65654F",
")$	c #A7AA99",
"!$	c #B1B3A3",
"~$	c #B2B4A4",
"{$	c #555657",
"]$	c #585956",
"^$	c #525357",
"/$	c #080860",
"($	c #676852",
"_$	c #ACAE9C",
":$	c #999C88",
"<$	c #9C9F8C",
"[$	c #6D6E53",
"}$	c #393A5A",
"|$	c #585955",
"1$	c #82846F",
"2$	c #434359",
"3$	c #17175F",
"4$	c #494A58",
"5$	c #74765E",
"6$	c #989A85",
"7$	c #9B9D88",
"8$	c #8E917A",
"                      .                                         ",
"                    + @ # $ %                                   ",
"                  & * = - ; > , '                               ",
"                ) ! ~ { ] ^ / ( _ : < [                         ",
"            ) ) } | 1 2 3 4 5 6 7 8 9 0 a b                     ",
"          ) ) c d e f g h i j k l m n o p q r s t               ",
"        u v w x y z A B C D E F G H I J K L M M N O P           ",
"        Q R S T U V W X Y Z `  ...+.@.#.$.%.&.*.=.-.;.          ",
"        >.,.'.).!.~.{.].^.Y /.` (._.:.<.[.}.|.1.2.3.4.5.        ",
"      6.7.8.9.0.a.b.c.d.].A f /.e.(.(.(.f.g.h.i.j.k.l.5.        ",
"      m.n.o.S d p.q.r.s.t.u.A v.w.e.(.(.C x.y.z.A.B.C.D.        ",
"      E.F.G.).H.I.J.K.L.M.N.u.O.P.w.Q.C R.S.z.T.U.V.W.X.        ",
"    Y.Z.`. +.+a.++@+#+$+%+&+t.u.O.*+=+R.-+;+>+,+'+j.)+!+        ",
"    Y.~+{+]+^+U u /+(+_+:+<+S.[+}+|+1+P.2+3+4+,+5+6+7+8+        ",
"  9+0+a.a+b+c+d+e+f+g+h+i+j+k+S.l+m+n+*+o+p+q+r+s+W.z.t+u+v+    ",
"  w+x+y+z+A+B+C+D+E+F+G+H+I+J+k+s.l+u.K+L+M+N+O+P+Q+R+S+T+U+V+  ",
"  W+X+Y+Z+`+A+ @.@+@@@#@$@%@&@*@k+S.=@-@;@>@,@'@)@!@W.~@W.U+{@  ",
"  ]@^@/@(@_@:@<@[@}@|@1@2@3@4@5@*@6@r.7@;@8@O+9@0@Q+a@~@W.U+{@  ",
"  b@c@d@e@f@g@h@i@j@k@l@m@n@>.o@5@p@q@r@7@s@t@u@v@w@6+x@W.U+    ",
"  y@z@A@B@3@C@D@E@F@G@H@I@J@K@>.o@L@M@N@O@P@Q@R@S@4+,+7+T@U+    ",
"  y@z@Q+U@V@W@X@Y@Z@`@ #.#+#@###/+$#%#&#*#=#-#;#q+4+>#7+,#C.    ",
"  y@'#)#!#~#{#]#^#n@/#(#_#:#u @#<#[#}#|#1#2#3#4#p+5#6#a@)+      ",
"    7#8#9#R 0#{#V@W@6.a#b#^#W@V@u D.}#%#c#a.!@d#e#q+w@T.f#      ",
"    g#h#i#j#k#l#~#V@u W@t t W@:#m#n#o#p#q#r#s#t#>@u#4+,+        ",
"    ` v#- w#x#y#z#A#V@u u ^#>.V@B#n#}#C#D#E#F#G#H#I#J#          ",
"        K#L#M#N#O#P#s.Q#R#e+1+S#5.p#T#D.U#V#W#X#L+M+Y#          ",
"            ` Z#`# $.$+$@$#$k+$$r@N@%$G#&$r@                    ",
"                *$=$-$;$>$,$m+'$)$!$;@>@q#~$                    ",
"                  {$]$^$h#/$>$($2+q+_$:$<$                      ",
"                      [$}$h# $|$1$f#7+                          ",
"                          2$3$4$5$6$7$                          ",
"                              (./.8$                            "};
